Coordinates
version=1
nRows=13
nColumns=36
inDegrees=yes

Units are S.I. units (second, meters, Newtons, ...)
If the header above contains a line with 'inDegrees', this indicates whether rotational values are in degrees (yes) or radians (no).

endheader
time	pelvis_tilt	pelvis_list	pelvis_rotation	pelvis_tx	pelvis_ty	pelvis_tz	hip_flexion_r	hip_adduction_r	hip_rotation_r	knee_angle_r	knee_angle_r_beta	ankle_angle_r	subtalar_angle_r	mtp_angle_r	hip_flexion_l	hip_adduction_l	hip_rotation_l	knee_angle_l	knee_angle_l_beta	ankle_angle_l	subtalar_angle_l	mtp_angle_l	lumbar_extension	lumbar_bending	lumbar_rotation	arm_flex_r	arm_add_r	arm_rot_r	elbow_flex_r	pro_sup_r	arm_flex_l	arm_add_l	arm_rot_l	elbow_flex_l	pro_sup_l
     18.55000000	    -18.72949768	      1.80049127	     -2.68796656	      0.29790679	      0.98172844	     -0.06266688	     10.83534814	     -5.16057774	     -3.58004965	      0.08197993	      0.00143082	      9.42523080	      2.77667602	     -7.49999987	     11.12618351	     -3.89667589	      1.30008328	      2.85837997	      0.04988814	      5.25394017	     -5.22032043	     -7.49999987	     21.03476696	     -0.88550716	      3.37345465	     -9.91437488	     -9.15134095	     16.00423296	     32.55405282	     67.00092890	     -3.31030763	    -11.10152269	     15.61583310	     30.58018938	     75.41663299
     18.56666670	    -18.56705265	      1.77024280	     -2.81751372	      0.29807174	      0.98136690	     -0.06266608	     10.69683348	     -5.11755985	     -3.48478854	      0.08254695	      0.00144072	      9.36818923	      2.67228647	     -7.49999987	     10.93855478	     -3.93818665	      1.29502743	      2.86687888	      0.05003648	      5.46097406	     -5.11943363	     -7.49999987	     20.93770008	     -0.79279871	      3.44076454	     -9.85154027	     -9.13825917	     15.94403891	     32.21991374	     66.93989740	     -3.29645144	    -10.94959528	     15.75430359	     30.21031911	     75.16604738
     18.58333330	    -18.57405570	      1.87679260	     -2.94448818	      0.30590264	      0.98171937	     -0.05631582	     10.65846036	     -5.16502550	     -3.44337597	      0.08188030	      0.00142908	      9.43600446	      2.64297881	     -7.49999987	     10.86600862	     -3.90575999	      1.10539451	      2.88864524	      0.05041637	      5.76244674	     -4.96254659	     -7.49999987	     21.28919068	     -0.87509008	      3.52017729	    -10.09406038	     -9.04830619	     15.90483803	     31.83749175	     66.90688951	     -3.56546927	    -10.90399860	     15.94193269	     29.79018542	     74.90001220
     18.60000000	    -18.39776554	      2.05560395	     -3.22555059	      0.31639548	      0.98228917	     -0.06182472	     10.38339784	     -5.32974378	     -3.29353408	      0.07979356	      0.00139266	      9.43719589	      2.70925585	     -7.49999987	     10.42040713	     -3.77613120	      0.83024780	      2.81602929	      0.04914898	      5.95416296	     -4.88480011	     -7.49999987	     21.58331839	     -0.90676836	      3.71530908	    -10.54075008	     -8.96831728	     15.69560675	     31.46764701	     66.38133868	     -4.10724256	    -10.79343082	     15.73414812	     29.55983479	     73.67726234
     18.61666670	    -18.35619970	      2.12070533	     -3.41418936	      0.31601213	      0.98215135	     -0.06196110	     10.24841830	     -5.39116507	     -3.22892680	      0.07884273	      0.00137607	      9.19254290	      2.63216471	     -7.49999987	     10.22992909	     -3.71251102	      0.66977731	      2.91091165	      0.05080499	      6.10236430	     -4.79778619	     -7.49999987	     22.06893228	     -0.81870195	      3.75663233	    -11.12534274	     -8.94653501	     15.53189032	     30.82745971	     66.35437608	     -4.52400140	    -10.63395510	     15.76228751	     29.05527990	     73.58458621
     18.63333330	    -18.33132218	      2.19089162	     -3.64758779	      0.31567150	      0.98142355	     -0.06163314	     10.13901238	     -5.44387349	     -3.06794859	      0.07762976	      0.00135489	      9.06204993	      2.67706974	     -7.49999987	      9.97746468	     -3.66118402	      0.58505839	      2.85476179	      0.04982499	      6.27877875	     -4.74886306	     -7.49999987	     22.52297227	     -0.77047837	      3.84176566	    -11.62996069	     -8.89850246	     15.12087751	     30.27978766	     66.24561276	     -5.04707607	    -10.46656207	     15.75358465	     28.61616054	     73.45056976
     18.65000000	    -18.25187417	      2.21856471	     -3.87305129	      0.31541343	      0.98133134	     -0.06170971	      9.99277487	     -5.46789050	     -2.87243408	      0.07694479	      0.00134294	      8.93367649	      2.64790133	     -7.49999987	      9.68967357	     -3.63276230	      0.53967210	      2.76258719	      0.04821624	      6.34327526	     -4.78446450	     -7.49999987	     22.79445657	     -0.69795043	      3.84955107	    -12.04089149	     -8.88797913	     14.58693013	     29.96999318	     65.93352071	     -5.57583491	    -10.29559990	     15.68532498	     28.32911585	     72.99578777
     18.66666670	    -18.12543935	      2.21061276	     -4.01831231	      0.31511490	      0.98098267	     -0.06149833	      9.81445013	     -5.46078256	     -2.82295964	      0.07624342	      0.00133070	      8.77049115	      2.60375436	     -7.49999987	      9.40327837	     -3.61696248	      0.50134102	      2.71353790	      0.04736017	      6.41422482	     -4.84617817	     -7.49999987	     22.96534265	     -0.62002057	      3.89717814	    -12.33579848	     -8.82818534	     13.99881785	     29.57594133	     65.71003579	     -5.89733807	    -10.09073405	     15.76717690	     27.87379331	     72.86139364
     18.68333330	    -18.03726076	      2.21912501	     -4.15393113	      0.31485182	      0.98089624	     -0.06168168	      9.69126395	     -5.46661789	     -2.78398879	      0.07552050	      0.00131808	      8.64881153	      2.60158732	     -7.49999987	      9.16286490	     -3.58896319	      0.41209183	      2.64346172	      0.04613711	      6.50362451	     -4.78421853	     -7.49999987	     23.15878482	     -0.57313313	      3.93143033	    -12.77931200	     -8.80025405	     13.44248207	     29.31638595	     65.45552396	     -6.18080781	     -9.88298726	     15.78738590	     27.58825889	     72.67534651
     18.70000000	    -17.95489005	      2.21532964	     -4.23190082	      0.31462940	      0.98043786	     -0.06144759	      9.56112389	     -5.47836361	     -2.62056252	      0.07546415	      0.00131710	      8.56667313	      2.52030548	     -7.49999987	      8.97433454	     -3.55700773	      0.39479795	      2.60848989	      0.04552674	      6.52420140	     -4.87477627	     -7.49999987	     23.27150729	     -0.55334926	      3.81469630	    -13.12956692	     -8.83197960	     12.90000153	     29.17710568	     65.20260593	     -6.50972233	     -9.76960299	     15.97183594	     27.44745724	     72.59842961
     18.71666670	    -17.87883276	      2.16740640	     -4.26896712	      0.31447526	      0.98045029	     -0.06175060	      9.44275707	     -5.43527202	     -2.60993824	      0.07528911	      0.00131404	      8.51876639	      2.43611239	     -7.49999987	      8.86492348	     -3.59417273	      0.47201978	      2.62953379	      0.04589402	      6.71214040	     -4.90373033	     -7.49999987	     23.36348114	     -0.52088161	      3.84450670	    -13.46929923	     -8.80059159	     12.20261185	     29.01932574	     64.76329359	     -6.62408460	     -9.66059676	     16.18350769	     27.29122086	     72.29296738
     18.73333330	    -17.63306538	      2.07002590	     -4.25475590	      0.30642411	      0.97995595	     -0.06807902	      9.21871355	     -5.39444791	     -2.52836253	      0.07544937	      0.00131684	      8.51185871	      2.31036082	     -7.49999987	      8.62559188	     -3.61989810	      0.75033434	      2.61687866	      0.04567315	      6.66578889	     -4.94397056	     -7.49999987	     23.02121773	     -0.43321424	      3.75349880	    -13.60518538	     -8.89436010	     11.54018208	     29.22552309	     64.25624037	     -6.77405195	     -9.48778058	     16.21105273	     27.49870747	     71.61536704
     18.75000000	    -17.57919418	      2.12584849	     -4.33157251	      0.31422234	      0.98038365	     -0.06175483	      9.17853899	     -5.43739805	     -2.54293924	      0.07537327	      0.00131551	      8.50683104	      2.32466742	     -7.49999987	      8.51268124	     -3.54894863	      0.61072848	      2.56892287	      0.04483616	      6.84289203	     -4.92699673	     -7.49999987	     23.13672606	     -0.46274809	      3.85301722	    -13.77663471	     -8.86691867	     10.97598458	     29.12646968	     63.65456894	     -6.92394203	     -9.39042509	     16.61081021	     27.30438328	     70.91271770
